<?xml version="1.0" encoding="UTF-8"?>
<svg id="Layer_2" data-name="Layer 2" xmlns="http://www.w3.org/2000/svg" viewBox="0 0 242.33 108.93">
  <defs>
    <style>
      .cls-1 {
        fill: #2b3990;
      }

      .cls-1, .cls-2 {
        stroke-width: 0px;
      }

      .cls-3, .cls-4, .cls-5, .cls-6, .cls-7, .cls-8, .cls-9, .cls-10 {
        stroke-miterlimit: 10;
      }

      .cls-3, .cls-4, .cls-9, .cls-10 {
        stroke: #231f20;
      }

      .cls-3, .cls-9 {
        stroke-width: 1.91px;
      }

      .cls-3, .cls-10 {
        fill: #231f20;
      }

      .cls-4, .cls-11, .cls-5, .cls-6, .cls-9 {
        fill: none;
      }

      .cls-4, .cls-6 {
        stroke-width: 2.68px;
      }

      .cls-11 {
        stroke-linejoin: round;
      }

      .cls-11, .cls-5 {
        stroke: #2b3990;
        stroke-width: 5.5px;
      }

      .cls-11, .cls-5, .cls-8 {
        stroke-linecap: round;
      }

      .cls-2 {
        fill: #1c75bc;
      }

      .cls-6, .cls-7, .cls-8 {
        stroke: #ed1c24;
      }

      .cls-7, .cls-8 {
        fill: #00a14b;
        stroke-width: .25px;
      }

      .cls-10 {
        stroke-width: .6px;
      }
    </style>
  </defs>
  <g id="Layer_1-2" data-name="Layer 1">
    <circle class="cls-2" cx="180.48" cy="65.63" r="28.26"/>
    <path class="cls-7" d="m169.7,87.96c-.01-.32-.02-.65-.03-.97-.03-.14,0-.22.03-.27.02-.04.05-.04.13-.11.1-.08.15-.12.18-.16.11-.15-.01-.41-.06-.53-.08-.18-.14-.2-.29-.49-.06-.13-.1-.21-.08-.3.01-.08.06-.15.11-.22.09-.13.13-.12.16-.19.08-.18-.07-.42-.1-.46-.08-.14-.16-.16-.16-.26,0-.08.05-.17.13-.21.15-.09.29.05.42-.03.07-.05.1-.15.11-.22.03-.16-.03-.22.02-.32.05-.1.17-.14.24-.16.23-.07.33.05.54-.02.14-.05.23-.14.26-.18,0-.01.19-.22.14-.49-.02-.13-.13-.28-.35-.59-.11-.15-.17-.23-.14-.29.04-.08.22-.07.3-.06.2.01.27.08.45.06,0,0,.08,0,.18-.05.34-.14.34-.53.73-.89.25-.23.51-.35.51-.35.16-.08.26-.09.35-.19.1-.11.12-.25.13-.46.01-.67-.21-.91-.08-1.34.03-.1.06-.2.16-.29.15-.14.31-.09.75-.13.29-.03.52-.05.77-.16.03-.01.26-.12.45-.3.49-.48.47-1.26.46-1.55-.01-.59-.19-.92-.03-1.39.05-.15.08-.25.16-.37.16-.25.32-.3.4-.54.03-.1,0-.11.05-.24.02-.07.08-.23.21-.38.21-.24.35-.17.51-.38.1-.13.12-.27.14-.4.03-.18.07-.42-.05-.53-.11-.1-.33-.05-.51,0-.17.04-.25.1-.4.08-.11-.01-.19-.06-.22-.08-.19-.11-.26-.28-.34-.4-.13-.21-.21-.19-1.2-.75-.05-.03-.13-.07-.22-.06-.12.01-.15.09-.34.19-.12.07-.22.12-.29.08-.02,0-.05-.03-.11-.26-.05-.18-.04-.18-.06-.22-.1-.16-.37-.16-.42-.16-.02,0-.36,0-.49.22-.05.09-.03.15-.1.19-.09.07-.28.05-.35-.06-.04-.07-.04-.17,0-.24.07-.12.22-.08.26-.18.03-.08-.05-.2-.14-.26-.15-.08-.35-.01-.46.1-.1.09-.08.17-.18.22-.09.05-.23.04-.27-.03-.05-.07,0-.17.08-.3.12-.22.2-.26.26-.37.1-.21-.04-.46-.14-.65-.24-.43-.58-.7-.83-.88-.56-.39-.6-.25-1.42-.73-.58-.35-.87-.52-.99-.73-.02-.04-.09-.17-.24-.24-.1-.04-.19-.04-.27-.03-.05,0-.38.02-.61-.03-.18-.04-.15-.09-.64-.37-.26-.15-.33-.17-.4-.18-.04,0-.39-.05-.54.14-.08.11-.08.27-.08.42,0,.16.04.23-.02.32-.04.07-.13.12-.21.11-.12-.01-.19-.16-.21-.26-.02-.11.01-.17.08-.4.08-.28.13-.43.08-.48-.08-.09-.34,0-.51.1-.09.06-.12.1-.32.32-.28.32-.42.45-.56.56-.18.14-.27.21-.37.19-.17-.03-.18-.26-.38-.32-.11-.03-.15.02-.37.08-.21.06-.49.14-.73.05-.22-.08-.32-.27-.42-.43-.06-.1-.24-.43-.16-.78.04-.16.1-.21.13-.43.02-.14.03-.27-.05-.37-.08-.11-.22-.13-.34-.14-.26-.04-.32.06-.51.02-.15-.03-.3-.13-.38-.27-.15-.25-.08-.59.08-.77.1-.12.18-.1.29-.24.02-.03.18-.25.1-.4-.03-.05-.08-.08-.49-.14-.38-.06-.44-.06-.49-.02-.11.08-.05.2-.13.37-.15.31-.58.38-.67.4-.42.07-.74-.12-.85-.19-.34-.23-.46-.57-.53-.75-.26-.74.03-1.42.13-1.64.21-.48.49-.76.59-.85.2-.18.54-.49.96-.46.06,0,.17.03.38.1.44.13.49.19.67.18.05,0,.32-.02.49-.21.09-.1.07-.15.14-.21.05-.04.18-.1.61.05.39.14.62.22.83.46.06.07.34.39.34.81,0,.19-.06.33.03.42.08.08.25.08.37.02.19-.1.21-.36.22-.49.02-.23-.04-.27-.1-.64-.04-.31-.07-.49,0-.7.02-.07.11-.32.34-.48.16-.11.28-.1.48-.14.15-.03.6-.13.88-.43.21-.22.43-.65.37-1.07-.02-.13-.07-.32.03-.46.04-.06.09-.09.21-.14.31-.14.45-.15.62-.22.2-.09.16-.16.46-.4.16-.13.19-.12.78-.46.51-.3.56-.34.61-.38.22-.21.21-.33.42-.45.04-.02.27-.15.56-.11.19.03.22.1.42.16.12.03.2.03.67-.03.55-.07.72-.11.94-.19.26-.1.34-.18.37-.27.04-.11,0-.26-.08-.34-.04-.03-.09-.05-.43-.03-.22.01-.34.03-.53,0-.11-.02-.17-.04-.21-.1-.05-.07-.05-.17-.02-.24.04-.1.12-.09.14-.18.03-.09-.02-.21-.1-.27-.15-.13-.45-.08-.62.06-.14.11-.12.2-.26.27-.13.06-.33.06-.38-.03-.06-.1.06-.25.1-.3.11-.15.26-.22.48-.32.14-.06.26-.12.43-.14.22-.04.39,0,.49.02.32.05.38-.03,1.1-.1.76-.07.73.01,1.09-.08.6-.16.81-.43.86-.51.05-.07.17-.25.13-.46,0-.01-.04-.22-.16-.24-.07-.01-.1.04-.21.1-.05.03-.09.04-.45.08-.35.04-.4.04-.43,0-.05-.06,0-.18.03-.24.07-.16.16-.16.24-.3.02-.03.15-.26.06-.42-.04-.08-.14-.12-.3-.21-.08-.04-.12-.05-.14-.1-.05-.09.02-.22.05-.27.08-.14.14-.13.22-.26.07-.12.14-.32.05-.43-.06-.07-.15-.08-.18-.08-.17-.01-.3.11-.43.24-.21.21-.19.28-.35.38-.06.04-.22.13-.38.08-.13-.04-.2-.14-.22-.18-.1-.15-.1-.33-.1-.45,0-.16.04-.18.02-.24-.07-.18-.4-.21-.57-.22-.19-.02-.46-.04-.77.1-.46.2-.66.6-.72.72-.12.25-.05.29-.22.69-.12.28-.19.45-.37.59-.14.12-.19.08-.54.26-.28.14-.42.21-.53.32-.25.26-.14.46-.4.69-.12.1-.34.24-.49.16-.15-.08-.16-.34-.16-.43,0-.3.14-.4.08-.61-.04-.14-.13-.21-.24-.3-.23-.19-.38-.16-.8-.34-.29-.12-.46-.2-.59-.38-.05-.07-.15-.24-.14-.48.01-.31.22-.51.34-.62.05-.05.22-.21.51-.32.48-.18.83-.06.93-.26.06-.12-.04-.2.03-.3.09-.12.31-.11.56-.11.14,0,.23.02.34-.05.02-.01.09-.06.13-.14.05-.13-.03-.21,0-.29.05-.12.36-.09.72-.08.39.01.65,0,1.15-.05.38-.03.53-.06.62-.19.13-.17.07-.39.06-.4-.05-.17-.19-.3-.34-.34-.16-.04-.3.02-.49.11-.12.06-.16.09-.42.22-.16.08-.23.11-.3.08-.08-.03-.12-.12-.14-.18-.06-.13-.03-.18-.08-.22-.07-.06-.17.03-.26-.03-.06-.04-.09-.14-.06-.21.03-.06.09-.05.16-.11.07-.06.11-.18.08-.24-.04-.08-.22-.05-.51,0-.29.05-.44.08-.49.18-.06.11.03.18,0,.37-.03.19-.15.34-.27.43-.09.06-.18.09-.62.1-.34,0-.35,0-.81-.02-.43,0-.53,0-.69-.06-.17-.07-.2-.15-.32-.14-.13,0-.18.09-.49.3-.23.15-.29.16-.34.16-.1,0-.13-.05-.35-.16-.21-.11-.32-.16-.46-.16-.13,0-.13.04-.3.05-.13,0-.25,0-.34-.06-.11-.09-.05-.22-.13-.35-.07-.13-.22-.17-.62-.24-.91-.16-1.06-.11-1.13-.08-.24.1-.37.27-.43.35-.56.73-1.28,1.34-1.79,2.11-2.05,3.08-2.01,3-2.24,3.38-.64,1.12-1.45,2.55-2.12,4.55,0,0-.14.4-1.05,3.82.03.03.08.08.14.1.1.03.16-.01.4-.08.21-.06.22-.04.26-.08.08-.09.03-.25-.05-.51-.08-.25-.12-.27-.14-.43-.01-.1-.06-.38.08-.46.1-.06.27.02.35.08.17.13.21.34.24.51.05.29-.02.37,0,.59.03.27.16.46.42.8.39.53.48.41.67.75.16.29.23.6.34,1.05.07.33.04.29.08.4.24.69,1.07.97,1.23,1.02.32.11.62.21.94.1.15-.05.25-.13.45-.13.04,0,.29.01.48.19.15.14.1.23.27.4.02.02.14.14.32.21.28.11.4-.02.64.03.23.05.37.24.65.62.31.41.26.47.51.78.18.21.38.45.72.59.19.08.46.19.7.08.15-.07.19-.18.37-.21.17-.03.31.04.35.06.18.1.25.27.29.37.02.06.12.32.02.8-.06.29-.17.8-.57,1.17-.14.12-.3.23-.38.46-.05.16-.05.31-.05.37,0,.23.08.45.11.53.03.09.05.13.06.21.02.12,0,.22-.03.3-.1.38-.15.41-.16.54,0,.17.07.3.16.43.42.65.63.98.69,1.05.46.64.34.62.69,1.04.14.18.39.47.77.78.17.14.22.16.72.54.43.33.48.38.53.45.2.27.23.56.27.88.02.18.06.47.02.83-.03.27-.08.38-.02.54.08.2.22.19.32.4.07.15.03.23.03.57,0,.26.02.45.05.72.04.37.08.39.13.77.04.28.05.5.06.96.02.46.02.85.02.96,0,.65-.03.61,0,.77.11.56.42.97.42.97.08.12.17.2.21.37.04.15,0,.19.02.46.02.22.04.22.05.4,0,.16,0,.29-.06.43-.08.15-.16.15-.16.24,0,.14.21.19.43.42.1.09.16.2.29.42.29.49.23.57.43.83.1.13.28.35.59.45.27.08.5.03.62,0Z"/>
    <path class="cls-7" d="m161.88,61.84s-.04-.09-.02-.17c.02-.08.07-.13.09-.15.05-.05.11-.06.2-.08.19-.05.28-.07.31-.08.09-.02.23-.04.44-.05.22-.01.33-.02.45,0,.17.02.3.08.42.13.1.04.13.06.38.2.32.18.49.27.51.28.25.13.35.16.42.28.02.03.06.12.04.22-.02.09-.08.15-.1.16-.12.11-.29.09-.5.07-.27-.03-.46-.1-.61-.16-.21-.08-.29-.14-.34-.18-.16-.13-.21-.17-.21-.22,0-.03,0-.07-.02-.12,0-.03-.02-.07-.06-.11-.02-.01-.04-.03-.15-.04-.12-.01-.18-.02-.25,0-.02,0-.02,0-.16.08-.1.05-.15.08-.16.08-.14.06-.27.03-.32.02-.09-.02-.25-.05-.32-.18Z"/>
    <path class="cls-7" d="m164.88,63c.01-.05.06-.08.11-.12.06-.04.12-.06.16-.07.14-.04.21-.06.3-.08.12-.02.21-.03.36-.04.14,0,.25-.02.4-.01.03,0,.15,0,.37.03.15.01.2.02.26.05.04.02.14.08.16.19.01.07-.02.13-.03.15-.01.03-.05.09-.19.15-.08.04-.16.05-.39.07-.16.02-.28.02-.3.02-.16,0-.28.02-.45.01-.04,0-.18,0-.36-.03-.07,0-.15-.02-.23-.07-.09-.05-.13-.09-.14-.11-.02-.03-.06-.09-.04-.15Z"/>
    <path class="cls-7" d="m194.24,81.65c.07.02.16.03.26.03.17,0,.26.01.35-.03.18-.08.14-.24.32-.32.16-.07.33,0,.35,0,.18.07.18.21.32.26.13.04.25-.04.57-.26.43-.3.65-.45.77-.54.14-.12.3-.27.61-.57.36-.36.73-.73.73-.73.24-.07.33-.17.35-.26.05-.18-.17-.31-.13-.54.03-.18.2-.3.32-.38.26-.18.4-.11.57-.29.03-.03.17-.18.19-.38.03-.26-.15-.36-.19-.64-.04-.26.08-.48.16-.64.13-.25.27-.32.83-.8.36-.31.54-.46.61-.57.18-.31.13-.61.06-1.15-.15-1.19-.23-1.8-.19-2.14.07-.71.33-1.21.38-1.31.23-.44.44-.58,1.21-1.31.13-.13.63-.65,1.63-1.69.54-.57.91-.97.86-1.44,0-.07-.04-.32-.22-.45-.12-.08-.29-.09-.64,0-.64.17-.69.36-1.18.48-.23.05-.64.15-.99-.06-.07-.04-.28-.18-.35-.42-.06-.22.05-.33-.03-.48-.09-.17-.29-.14-.51-.26-.26-.13-.38-.34-.57-.7-.3-.54-.25-.77-.48-1.34-.19-.49-.22-.32-.61-1.12-.49-1.01-.45-1.27-.77-1.53-.09-.07-.29-.22-.32-.45,0,0,0-.03,0-.32.04,0,.22-.04.38.06.03.02.11.07.16.17.05.1.03.17.07.18.07.03.19-.27.29-.26.11.02.05.37.19.77.13.35.26.33.67.96.2.3.29.45.35.64.14.47-.03.65.13.89.21.32.57.12.86.45.12.13.1.2.32,1.12.13.54.15.6.22.67.35.34,1.06.11,1.21.06.6-.19.5-.43,1.21-.73.49-.21.77-.19,1.15-.51.13-.1.28-.23.38-.45.13-.25.06-.36.19-.57.05-.09.09-.11.48-.42.43-.33.51-.4.51-.51,0-.17-.21-.3-.26-.32-.17-.1-.25-.04-.54-.13-.17-.05-.29-.09-.38-.19-.1-.11-.13-.24-.16-.38-.06-.26,0-.39-.06-.42-.08-.03-.19.22-.48.45-.13.1-.33.26-.61.29-.37.03-.76-.18-.93-.48-.12-.22-.02-.3-.16-.54-.15-.26-.32-.24-.48-.51-.04-.06-.23-.38-.1-.57.11-.15.36-.13.42-.13.25.02.41.2.61.42.27.3.24.39.51.67.21.23.39.41.57.38.17-.03.19-.21.45-.29.07-.02.23-.07.35,0,.19.11.1.37.29.54.03.03.08.07.54.13.37.05.56.07.83.06.15,0,.35-.02.57-.06-.06-.3-.14-.7-.26-1.18-.12-.5-.4-1.59-.99-3.19-.39-1.07-.95-2.56-1.95-4.41-.98-1.81-1.89-3.05-2.11-3.35-.7-.94-1.36-1.7-1.88-2.27-.08.07-.2.16-.35.22-.16.07-.3.13-.45.1-.08-.02-.09-.05-.32-.22-.27-.2-.32-.2-.35-.19-.14.04-.19.3-.19.32-.03.21.07.27.03.42-.06.21-.35.29-.45.32-.23.07-.44.03-.57,0-.32-.06-.48-.19-.54-.13-.07.07.1.26.03.35-.07.09-.32.03-.48-.06-.09-.05-.33-.19-.32-.42,0-.13.1-.27.22-.32.15-.06.23.06.51.1.04,0,.34.04.64-.13.08-.05.27-.15.26-.26-.01-.11-.25-.17-.51-.22-.72-.15-1.28-.19-1.28-.19-.61-.05-.42-.07-1.37-.16-.97-.09-1.17-.07-1.37-.03-.09.02-.34.11-.83.29-.51.18-.64.25-.77.38-.08.08-.05.08-.32.48-.19.28-.28.42-.35.48-.18.15-.27.11-.73.26-.42.14-.63.2-.77.38-.23.3-.13.68-.13.7.08.31.34.56.61.61.12.02.27,0,.57-.06.24-.04.3-.08.38-.03.13.07.08.24.19.48.03.07.19.4.51.48.21.05.49-.02.61-.19.1-.15,0-.26.13-.42.06-.08.1-.07.35-.22.21-.13.31-.19.32-.26.01-.12-.18-.16-.35-.38-.13-.18-.24-.46-.16-.7.05-.14.11-.11.38-.42.27-.29.3-.42.51-.51.02-.01.28-.12.35-.03.07.08-.07.24-.19.61-.12.35-.2.57-.1.73.11.17.39.2.64.22.16.02.15,0,.45,0,.34.01.35.04.54.03.3-.02.42-.1.48-.03.07.08.02.29-.1.42-.13.15-.32.16-.67.19-.3.02-.55.04-.69-.03,0,0-.03-.02-.04,0-.06.04.23.41.13.57-.08.12-.34.1-.48.06-.19-.04-.25-.13-.32-.1-.08.04-.03.18-.06.45-.03.21-.05.43-.19.51-.05.03-.1.04-.54-.06-.38-.09-.41-.12-.51-.1-.23.05-.22.25-.45.35-.24.11-.4-.04-.8-.06-.29-.02-.49.04-.8.13-.69.2-1.14.56-1.28.67-.36.3-.3.38-.61.57-.18.11-.52.33-.99.35-.22,0-.36-.03-.64.03-.13.03-.4.1-.42.22-.01.07.07.13.48.45.32.24.38.28.42.38.07.17.04.4-.1.54-.11.12-.26.14-.48.16-.16.02-.38.04-.61-.06-.24-.11-.26-.26-.42-.26-.14,0-.27.13-.32.26-.05.12-.01.2.03.51.05.32.07.48.03.57-.09.24-.31.22-.38.48-.05.18.01.33.03.38.06.13.15.2.38.35.62.41.67.42.73.42.23-.02.22-.2.54-.26.15-.03.19,0,.48-.03.2-.02.3-.04.35-.1.12-.12,0-.28.06-.51.07-.25.29-.39.57-.57.33-.22.45-.18.54-.35.07-.13.02-.2.13-.48.07-.19.11-.28.19-.32.09-.04.22.02.48.13.23.1.24.13.32.13,0,0,.1,0,.42-.32,0,0,.21-.08.32-.1.19-.03.43.04.57.19.2.21.05.42.29.77.07.1.14.2.26.22.15.04.23-.09.42-.06.11.01.25.07.32.19.09.17-.06.29,0,.57.02.08.06.27.22.35.12.06.29.06.38-.03.1-.09.09-.23.06-.51-.02-.28-.03-.42-.1-.54-.09-.18-.2-.21-.73-.54-.46-.29-.54-.37-.61-.48-.16-.26-.18-.6-.1-.64.08-.04.18.2.51.45.2.14.42.23.86.42.28.11.43.16.51.32.02.04.01.04.06.35.05.29.1.57.1.57,0,0,.41,0,.54.19.08.12.04.29.03.32-.05.17-.16.18-.16.29,0,.14.21.28.42.29.02,0,.22,0,.35-.16.15-.18.08-.44.06-.51-.1-.37-.4-.43-.38-.7,0-.11.06-.24.16-.29.11-.05.18.03.38.03.19,0,.19-.07.45-.1.28-.03.35.05.48-.03.15-.09.18-.29.19-.35.03-.2-.06-.24-.06-.45-.01-.37.25-.64.29-.67.09-.08.21-.21.42-.22.18-.01.39.07.48.22.1.17-.01.33.1.42.11.09.35.03.35.03,0,0,.19-.16.29-.32.15-.26-.02-.42.13-.61.11-.15.32-.17.45-.19.11-.01.32-.04.38.06.06.1-.04.28-.16.38-.17.15-.34.09-.38.19-.05.13.2.33.26.38.29.24.45.19.73.38.04.03.52.36.45.64-.05.21-.39.3-.61.32-.32.02-.43-.12-.89-.26-.19-.06-.53-.15-.93-.13-.16,0-.47.11-1.09.32-.54.18-.7.24-.73.38-.02.07,0,.1.19.48.22.44.24.49.32.54.06.04.13.06.57.03.33-.02.49-.03.67-.06.61-.11.7-.27.86-.19.27.13.28.72.16,1.12-.02.07-.22.7-.73.86-.22.07-.26-.02-.77,0-.53.02-.51.12-.8.1-.38-.03-.42-.21-1.12-.48-.58-.22-.71-.16-.77-.13-.19.13-.07.37-.29.61-.21.24-.6.28-.86.22-.3-.07-.29-.23-.67-.45-.59-.34-.97-.16-1.18-.48-.11-.17-.01-.22-.16-.64-.1-.3-.19-.54-.38-.61-.2-.07-.3.12-.67.19-.38.07-.45-.1-.93-.1-.41,0-.72.13-.96.22-.45.18-.47.31-.86.42-.2.06-.21.03-.73.1-.5.06-.75.1-.93.16-.13.04-.87.31-.93.77-.03.25.17.36.1.57-.07.2-.28.24-.54.38-.39.21-.61.49-.86.8-.17.21-.32.53-.64,1.18-.22.46-.28.62-.26.83.03.31.2.33.22.61.04.4-.27.54-.42,1.05-.11.39-.05.72,0,.96.04.23.14.54.8,1.44.63.86.95,1.29,1.37,1.47.5.22,1.02.2,1.15.19.39-.02.41-.11.86-.16.75-.08.85.17,1.31.03.53-.15.63-.54.99-.48.2.03.16.15.61.42.29.18.39.18.8.42.25.14.37.22.42.29.2.3-.11.57-.1,1.15.02.63.41,1.15.48,1.25.21.28.35.33.48.64.1.23.06.3.16.7.13.52.21.5.26.8.04.25,0,.37-.13,1.05-.1.55-.15.83-.16.93-.03.44.06.9.26,1.82.08.39.12.59.19.8.17.52.29.59.32.93.04.44-.15.56-.03.8.15.29.48.17.7.48.14.19.04.28.16,1.02.1.63.21.81.35.86Z"/>
    <path class="cls-8" d="m202.93,78.3c.14-.03.26-.06.36-.15.12-.11.15-.25.19-.51.1-.64.03-.68.11-.94.04-.14.16-.32.4-.68.28-.42.32-.42.45-.66.12-.22.24-.45.28-.77.02-.24.05-.5-.13-.68-.17-.17-.47-.22-.64-.11-.17.11-.08.29-.28.57-.14.2-.33.31-.43.36-.35.2-.5.09-.72.28-.03.02-.24.21-.28.49-.03.24.11.29.11.57,0,.13-.06.27-.17.55-.14.35-.17.35-.23.55-.09.28-.15.47-.06.68.12.3.46.41.51.43.22.07.41.03.53,0Z"/>
    <path class="cls-8" d="m161.33,45.37c-.05-.13.03-.25.04-.26.06-.08.13-.1.37-.18.2-.07-.38.12.43-.15.28-.09.42-.14.44-.14.28-.05.52,0,.63.02.1.02.21.06.42.14.19.07.22.09.38.14.12.04.25.09.41.12.14.03.32.07.55.06.29,0,.4-.09.55,0,.08.05.13.12.16.17.12.18.1.38.09.49-.01.16-.03.29-.12.36-.1.07-.21.03-.42,0-.33-.05-.27.02-.79-.02-.38-.03-.46-.07-.67-.03-.08.01-.2.04-.35.1-.13.06-.16.1-.25.13-.03,0-.29.08-.45-.07-.07-.07-.14-.19-.1-.29.05-.11.21-.13.25-.14.15-.02.22.04.29,0,.05-.04.07-.12.06-.18-.02-.11-.15-.16-.26-.2-.06-.02-.18-.06-.36-.06-.19,0-.34.04-.43.07-.2.06-.23.11-.39.13-.15.01-.24-.02-.27-.03-.06-.02-.16-.07-.2-.18Z"/>
    <path class="cls-8" d="m166.61,44.99c.03-.09.2-.15.33-.11.04.01.07.03.13.03.07,0,.11-.04.16-.06,0,0,.16-.09.36-.08.06,0,.21.01.25.1.05.11-.1.26-.13.29-.12.12-.27.16-.37.18-.11.02-.28.06-.46-.02-.14-.07-.31-.22-.27-.32Z"/>
    <path class="cls-8" d="m169.79,43.93c.16-.16.48-.04.56,0,.16.06.16.12.39.22.09.04.19.08.32.1.24.04.32-.03.46.05.09.05.19.15.17.23,0,.03-.04.08-.29.14-.21.05-.43.1-.73.06-.08-.01-.22-.07-.5-.17-.33-.12-.39-.17-.43-.24-.06-.12-.04-.29.06-.38Z"/>
    <path class="cls-8" d="m167.82,47.52c.05-.08.15-.1.26-.11.1-.01.18,0,.36.02.39.05.46.08.51.1.09.04.19.09.24.2.01.02.07.16,0,.26-.07.09-.21.09-.3.06-.1-.04-.09-.11-.21-.19-.08-.06-.16-.08-.26-.1-.11-.03-.24-.06-.39-.03-.11.02-.15.06-.19.03-.06-.04-.07-.15-.02-.22Z"/>
    <path class="cls-8" d="m169.27,45.25c.1-.14.27-.18.31-.18.08-.01.16,0,.32.02.22.04.22.06.37.07.1.01.23.03.39,0,.17-.04.18-.08.3-.08.1,0,.17.04.3.11.17.09.19.14.27.14.09,0,.12-.05.25-.1.16-.06.31-.04.41-.02.12.02.23.07.42.16.38.18.37.24.53.26.18.03.31-.02.37.06.02.03.01.04.02.2,0,.23.02.28.03.3.03.06.07.1.14.17.22.2.34.18.39.31.04.11-.01.22-.04.27-.08.16-.23.22-.26.23-.16.06-.3,0-.34,0-.14-.05-.17-.13-.32-.15-.05,0-.12-.01-.17.03-.09.08-.04.27-.04.28.04.13.11.13.15.26.01.03.06.21-.03.33-.09.11-.26.12-.37.09-.13-.03-.14-.11-.3-.15-.03,0-.2-.05-.25.02-.04.06.02.17.07.26.07.13.12.15.12.22,0,.09-.07.2-.17.22-.1.03-.19-.04-.3-.13-.14-.11-.22-.23-.23-.26-.09-.16-.05-.21-.14-.33-.02-.02-.12-.18-.31-.23-.2-.06-.28.05-.46-.03-.03-.01-.17-.07-.18-.17-.01-.13.22-.25.32-.3.05-.02.24-.12.55-.14.18-.01.36,0,.45,0,.17.01.27.03.42-.02.06-.02.15-.05.18-.14.03-.08,0-.16-.05-.24-.05-.09-.13-.21-.3-.33-.2-.14-.25-.09-.39-.22-.13-.13-.19-.24-.19-.24-.05-.1-.06-.16-.12-.18-.03-.01-.07,0-.18.06-.19.1-.19.14-.29.18-.03.01-.18.08-.34.02-.14-.05-.23-.16-.24-.18-.07-.1-.06-.18-.12-.2-.02,0-.05,0-.22.1-.16.1-.15.11-.21.13-.11.04-.22,0-.33-.03-.13-.04-.2-.06-.24-.14-.07-.13.05-.29.06-.32Z"/>
    <path class="cls-8" d="m170.23,43.01c.02-.06.1-.09.2-.13.09-.03.2-.06.38-.06.14,0,.23,0,.42.03.35.05.4.09.42.13.04.06.04.15.02.21-.03.08-.1.12-.17.15-.17.09-.33.09-.45.09-.09,0-.17-.01-.33-.04-.3-.05-.35-.09-.38-.12-.06-.06-.14-.17-.1-.26Z"/>
    <path class="cls-8" d="m171.96,42.06s.08-.1.4-.11c.29,0,.52.05.62.07.4.1.58.17.76.22.35.09.61.09,1.06.1.6,0,.88-.08,1.51,0,.24.03.47.07.48.16,0,.02,0,.07-.17.18-.27.17-.53.22-.62.23,0,0-.39.07-.84.22-.35.11-.61.25-.85.38-.37.2-.35.23-.69.39-.29.14-.47.2-.77.3-.37.12-.5.13-.63.08-.05-.02-.24-.08-.3-.23-.05-.12.04-.17,0-.37-.03-.12-.07-.15-.06-.26,0-.06,0-.13.05-.19.03-.04.08-.08.38-.11.23-.03.29-.02.34-.07.05-.07.04-.18,0-.25-.02-.03-.05-.08-.26-.17-.23-.1-.28-.07-.34-.14-.1-.1-.13-.29-.05-.4Z"/>
    <path class="cls-8" d="m174.39,44.07c0-.07,0-.18.09-.27.07-.08.17-.1.37-.13.3-.04.45-.03.59-.05.08,0,.21-.03.61-.16.61-.21.69-.3,1.09-.43.49-.17.9-.21,1.11-.23.31-.03.66-.06,1.08.03.09.02.31.07.65.13.28.05.36.05.44.05.31-.02.54-.15.58-.18.25-.15.22-.25.42-.36.11-.06.21-.07.68-.06.75.01.72.04.91.02.29-.04.36-.11.72-.14.16-.01.28-.03.45,0,.24.03.31.09.72.23.31.11.47.16.68.19.5.08.61.08.61.08.12,0,.26,0,.36.1,0,0,.1.1.07.18-.02.07-.13.08-.22.1-.05.01-.05.02-.51.29-.47.28-.5.29-.54.36-.07.12-.02.14-.12.42-.03.1-.09.24-.19.4-.1.15-.17.26-.3.33-.17.09-.33.07-.45.06-.22-.02-.25-.1-.49-.12-.05,0-.32-.03-.35.05-.02.06.11.16.16.19.18.13.27.09.48.21.11.06.25.14.32.3.02.04.09.19.02.32-.06.11-.19.15-.48.2-.37.06-.65.08-.81.09-.4.03-.6.04-.83.07-.35.05-.52.07-.69.15-.24.11-.22.18-.61.43-.21.13-.34.21-.53.27-.21.07-.26.03-.57.08-.35.05-.56.09-.78.22-.25.16-.4.39-.49.54-.18.28-.14.38-.32.57-.07.08-.23.25-.49.3-.32.07-.59-.09-.67-.14-.1-.06-.34-.23-.44-.52-.07-.19-.03-.3-.14-.5-.07-.12-.11-.13-.14-.23-.06-.18.02-.36.06-.46.04-.1.09-.17.29-.4.34-.4.35-.38.39-.47.09-.18.09-.34.09-.66,0-.39,0-.62-.17-.82-.04-.06-.02,0-.41-.32-.17-.14-.23-.19-.33-.2-.04,0-.08,0-.35.1-.26.09-.27.11-.36.13-.06.01-.1.02-.42.03-.41.02-.44.02-.5,0-.07-.03-.2-.1-.3-.32Z"/>
    <path class="cls-8" d="m183.57,47.48c-.01-.13.11-.25.21-.3.1-.06.22-.05.46-.02.2.02.22.04.35.03.13,0,.25-.04.3-.06.14-.04.15-.06.26-.1.13-.04.34-.1.5,0,.02,0,.17.1.18.26,0,0,0,.13-.09.22-.08.08-.16.05-.4.11-.07.02-.14.05-.3.1-.23.09-.24.1-.37.14-.17.05-.27.08-.39.07-.12-.01-.2-.06-.34-.14-.23-.13-.36-.2-.38-.33Z"/>
    <path class="cls-8" d="m172.32,52.75c.01-.07.06-.11.16-.19.04-.03.11-.08.26-.18.06-.04.11-.07.18-.1.07-.03.1-.05.14-.06.02,0,.14-.02.22.06.05.05.03.09.08.18.06.1.14.15.17.17.08.05.1.02.27.09.11.04.13.06.14.08.04.06.04.15,0,.22-.03.05-.08.07-.22.11-.15.05-.24.07-.31.09-.29.08-.3.12-.4.1-.02,0-.03,0-.28-.12-.23-.11-.26-.12-.3-.16-.02-.02-.14-.15-.11-.29Z"/>
    <path class="cls-8" d="m185.81,51.35c0-.14.14-.24.17-.26.08-.06.12-.04.25-.12.02-.01.1-.06.18-.14.09-.09.08-.12.17-.21.07-.07.12-.12.2-.14.14-.03.26.07.3.1.14.11.17.27.18.3.03.18-.05.32-.09.38-.12.2-.31.28-.38.31-.1.04-.17.05-.33.07-.18.02-.26.04-.35,0-.12-.04-.29-.16-.29-.31Z"/>
    <path class="cls-8" d="m187.56,49.4c-.09.09-.21.24-.27.46-.03.11-.07.29.02.43.04.05.1.09.22.17.2.12.24.1.3.18.08.1.08.22.09.31,0,.12.01.23-.06.31-.09.09-.18.02-.3.11-.12.09-.14.25-.15.3,0,.04-.03.23.09.37.03.03.08.07.36.13.31.06.47.09.64.05.11-.03.18-.07.3-.14.05-.03.21-.12.38-.3.18-.18.23-.3.24-.33.03-.07.06-.17.02-.23-.04-.06-.13-.06-.31-.07-.12,0-.17,0-.33,0-.19,0-.22-.02-.24-.05-.04-.05,0-.1.02-.26.02-.15.03-.28-.04-.35-.02-.02-.03-.02-.32-.1-.1-.03-.15-.04-.18-.08-.05-.05-.1-.14-.06-.2.05-.09.22-.03.26-.11.01-.03,0-.06-.07-.2-.09-.18-.14-.26-.15-.28-.08-.09-.24-.23-.36-.18-.03.01-.05.04-.06.06Z"/>
    <g>
      <path class="cls-5" d="m193.82,88.7c-.05.03-.11.06-.16.09-3.88,2.21-8.37,3.47-13.16,3.47s-9.3-1.27-13.19-3.49c-4.11-2.35-7.54-5.77-9.9-9.87-2.25-3.9-3.53-8.43-3.53-13.27s1.34-9.54,3.67-13.5c2.37-4.01,5.75-7.35,9.8-9.66,3.88-2.21,8.37-3.47,13.16-3.47s9.3,1.27,13.19,3.5c4.11,2.35,7.54,5.77,9.9,9.87,2.24,3.88,3.52,8.39,3.53,13.19"/>
      <line class="cls-11" x1="206.95" y1="65.63" x2="179.87" y2="65.63"/>
    </g>
    <line class="cls-4" x1="115.1" y1="65.7" x2="115.1" y2="65.7"/>
    <line class="cls-6" x1="115.1" y1="48.31" x2="115.1" y2="42.86"/>
    <line class="cls-6" x1="115.1" y1="88.54" x2="115.1" y2="83.08"/>
    <line class="cls-6" x1="97.71" y1="65.7" x2="92.26" y2="65.7"/>
    <polyline class="cls-4" points="115.1 65.7 115.1 65.7 115.1 65.7"/>
    <line class="cls-6" x1="126.41" y1="45.86" x2="123.71" y2="50.59"/>
    <line class="cls-6" x1="106.48" y1="80.8" x2="103.78" y2="85.54"/>
    <line class="cls-6" x1="134.9" y1="54.32" x2="130.18" y2="57.04"/>
    <polyline class="cls-4" points="115.1 65.7 115.1 65.7 115.1 65.7"/>
    <line class="cls-6" x1="100.02" y1="74.36" x2="95.29" y2="77.08"/>
    <line class="cls-6" x1="134.79" y1="77.27" x2="130.09" y2="74.51"/>
    <line class="cls-6" x1="100.11" y1="56.89" x2="95.4" y2="54.12"/>
    <line class="cls-6" x1="126.38" y1="85.56" x2="123.68" y2="80.82"/>
    <line class="cls-6" x1="106.51" y1="50.58" x2="103.81" y2="45.84"/>
    <polygon class="cls-10" points="114.78 49.56 112.18 54.12 117.38 54.12 114.78 49.56"/>
    <g>
      <path class="cls-5" d="m128.85,89.13c-.05.03-.11.07-.16.1-3.91,2.23-8.45,3.5-13.27,3.5s-9.39-1.28-13.31-3.52c-4.15-2.37-7.61-5.82-9.99-9.96-2.27-3.94-3.56-8.51-3.56-13.39s1.35-9.63,3.7-13.62c2.39-4.05,5.8-7.42,9.89-9.74,3.91-2.23,8.45-3.5,13.27-3.5s9.39,1.28,13.31,3.53c4.15,2.37,7.61,5.82,9.99,9.96,2.26,3.92,3.55,8.46,3.56,13.31"/>
      <line class="cls-11" x1="142.1" y1="65.86" x2="114.78" y2="65.85"/>
    </g>
    <polygon class="cls-10" points="131.6 65.7 127.04 63.1 127.04 68.3 131.6 65.7"/>
    <line class="cls-3" x1="115.41" y1="65.86" x2="129.32" y2="65.86"/>
    <line class="cls-9" x1="114.78" y1="66.81" x2="114.78" y2="52.74"/>
    <path class="cls-1" d="m72.77,95.77h-.93c-1.36,0-2.47-1.11-2.47-2.47v-34.4c0-5.39-.84-9.28-2.53-11.66-1.69-2.38-4.66-3.57-8.91-3.57-3.13,0-6.17.96-9.13,2.88-2.76,1.79-5.44,4.27-8.06,7.43-.36.44-.56,1.01-.56,1.58v37.74c0,1.36-1.11,2.47-2.47,2.47h-.93c-1.36,0-2.47-1.11-2.47-2.47v-34.4c0-2.67-.18-4.98-.55-6.92-.37-1.94-.99-3.52-1.87-4.74-.88-1.21-2.04-2.11-3.48-2.7-1.44-.58-3.22-.87-5.32-.87-3.08,0-6.01.96-8.8,2.88-2.6,1.79-5.22,4.27-7.86,7.43-.37.44-.57,1.01-.57,1.58v35.69c0,3.41-1.11,4.51-2.47,4.51h-.93c-1.36,0-2.47-1.11-2.47-2.47v-51.53c0-1.36,1.11-2.47,2.47-2.47h.93c1.36,0,2.47,1.11,2.47,2.47v5.91c1.95-2.19,3.8-3.92,5.54-5.21,1.74-1.29,3.37-2.27,4.91-2.95,1.54-.68,3.01-1.13,4.4-1.35,1.39-.22,2.72-.33,4-.33,3.67,0,6.79.85,9.39,2.55,2.59,1.7,4.47,4.3,5.65,7.8,1.47-2.04,3.02-3.73,4.66-5.06,1.64-1.34,3.3-2.39,4.99-3.17,1.69-.78,3.38-1.32,5.1-1.64,1.71-.32,3.37-.47,4.99-.47,10.51,0,15.77,6.85,15.77,20.55v34.91c0,1.36-1.11,2.47-2.47,2.47Z"/>
    <path class="cls-1" d="m242.33,93.06c0,1.36-1.06,2.48-2.42,2.56h-.02c-.81.05-1.63.07-2.44.07-2.49,0-4.49-.35-5.99-1.04-1.51-.69-2.66-1.73-3.45-3.12-.79-1.39-1.3-3.12-1.54-5.2-.24-2.08-.36-4.51-.36-7.29v-34.02h-4.5c-1.44,0-2.61-1.17-2.61-2.61v-.53c0-1.44,1.17-2.61,2.61-2.61h4.5v-11.96c0-1.44,1.17-2.61,2.61-2.61h.53c1.44,0,2.61,1.17,2.61,2.61v11.96h6.51c1.44,0,2.61,1.17,2.61,2.61v.53c0,1.44-1.17,2.61-2.61,2.61h-6.51v34.52c0,2.3.17,4.13.5,5.49.33,1.36.84,2.42,1.51,3.16.67.74,1.5,1.22,2.48,1.44.98.21,2.09.32,3.34.32h1.36c.38,0,.81-.02,1.29-.07v3.18Z"/>
  </g>
</svg>