<?xml version="1.0" encoding="UTF-8"?><svg xmlns="http://www.w3.org/2000/svg" viewBox="0 0 419.36 359.61"><defs><style>.d{fill:#fff;stroke:#231f20;stroke-miterlimit:10;stroke-width:4px;}</style></defs><g id="a"/><g id="b"><g id="c"><path class="d" d="M189.6,2V120.49h46.9V2h-46.9Z"/><text/><text/><g><path class="d" d="M123.23,115.64c23.59,.93,46.94,8.89,66.37,25.09v-.25c-19.63-16.32-42.51-23.96-66.37-24.84Z"/><path class="d" d="M189.6,120.49v20.24c-19.43-16.2-42.78-24.16-66.37-25.09-1.57-.06-3.14-.09-4.72-.09-21.72,0-40.98,5.43-56.78,14.81C26.68,151.1,2,190.1,2,236.51s24.19,84.92,59.24,105.65c15.8,9.38,37.52,15.31,58.26,15.31,26.92,0,51.51-8.9,70.1-24.88v20.22h23.52v-.28h23.38V120.49h-46.9Zm0,159.47c-15.8,21.22-39.99,33.07-63.69,33.07-44.92,0-77.01-35.05-77.01-76.52s29.62-76.52,74.55-76.52c28.14,0,51.83,14.31,66.15,33.07v86.9Z"/></g><path class="d" d="M380.66,277.14c-14.81,19.74-36.53,36.04-67.14,36.04-44.43,0-77.02-31.11-77.02-76.53v96.34c20.74,15.55,47.21,24.62,77.02,24.62,42.46,0,83.93-22.22,103.18-54.31l-36.04-26.16Zm-70.1-117.01c29.62,0,51.34,17.28,64.18,35.05l34.56-29.13c-21.73-30.11-58.26-50.35-98.74-50.35-28.5,0-53.95,8.78-74.06,23.86v97.09c0-43.94,32.09-76.52,74.06-76.52Z"/></g></g></svg>