<?xml version="1.0" encoding="UTF-8"?><svg xmlns="http://www.w3.org/2000/svg" viewBox="0 0 955.58 87.82"><defs><style>.d{fill:#231f20;}.e{fill:#fff;stroke:#231f20;stroke-miterlimit:10;stroke-width:4px;}</style></defs><g id="a"/><g id="b"><g id="c"><path class="e" d="M46.22,2V29.93h11.06V2h-11.06Z"/><text/><g><path class="e" d="M30.58,28.79c5.56,.22,11.06,2.1,15.64,5.91v-.06c-4.63-3.85-10.02-5.65-15.64-5.86Z"/><path class="e" d="M46.22,29.93v4.77c-4.58-3.82-10.08-5.7-15.64-5.91-.37-.01-.74-.02-1.11-.02-5.12,0-9.66,1.28-13.38,3.49-8.26,4.89-14.08,14.08-14.08,25.02s5.7,20.02,13.96,24.9c3.72,2.21,8.84,3.61,13.73,3.61,6.35,0,12.14-2.1,16.52-5.86v4.77h5.54v-.07h5.51V29.93h-11.06Zm0,37.59c-3.72,5-9.43,7.8-15.01,7.8-10.59,0-18.15-8.26-18.15-18.04s6.98-18.04,17.57-18.04c6.63,0,12.22,3.37,15.59,7.8v20.48Z"/></g><path class="e" d="M91.26,66.86c-3.49,4.65-8.61,8.5-15.83,8.5-10.47,0-18.16-7.33-18.16-18.04v22.71c4.89,3.67,11.13,5.8,18.16,5.8,10.01,0,19.78-5.24,24.32-12.8l-8.5-6.17Zm-16.52-27.58c6.98,0,12.1,4.07,15.13,8.26l8.15-6.87c-5.12-7.1-13.73-11.87-23.28-11.87-6.72,0-12.72,2.07-17.46,5.62v22.89c0-10.36,7.56-18.04,17.46-18.04Z"/><g><path class="d" d="M117.14,86.68V28.01h17.6c9.3,0,15.34,2.01,20.12,5.53,7.21,5.36,11.73,14.08,11.73,23.8s-4.44,18.44-11.65,23.8c-4.78,3.52-10.9,5.53-20.2,5.53h-17.6Zm33.95-45.76c-3.69-3.19-8.55-4.95-16.76-4.95h-8.8v42.75h8.8c8.21,0,13.08-1.76,16.76-4.95,4.44-3.94,7.12-9.89,7.12-16.43s-2.68-12.49-7.12-16.43Z"/><path class="d" d="M205.4,83.08c-3.19,2.85-7.46,4.44-12.15,4.44-3.52,0-7.21-1.01-9.89-2.6-5.95-3.52-10.06-10.06-10.06-17.94s4.19-14.5,10.14-18.02c2.68-1.59,5.95-2.51,9.64-2.51,4.44,0,8.72,1.34,12.32,4.44v-3.6h7.71v39.39h-7.71v-3.6Zm-.25-23.47c-2.43-3.19-6.45-5.62-11.23-5.62-7.63,0-12.66,6.12-12.66,12.99s5.45,12.99,13.08,12.99c4.02,0,8.13-2.01,10.81-5.62v-14.75Z"/><path class="d" d="M221.08,47.29h8.21l11.65,26.82,11.65-26.82h8.21l-17.1,39.39h-5.53l-17.1-39.39Z"/><path class="d" d="M272.71,28.01c2.93,0,5.28,2.35,5.28,5.28s-2.35,5.2-5.28,5.2-5.2-2.26-5.2-5.2,2.26-5.28,5.2-5.28Zm-3.94,19.28h7.96v39.39h-7.96V47.29Z"/><path class="d" d="M319.73,83.08c-3.19,2.85-7.46,4.44-12.15,4.44-3.52,0-7.21-1.01-9.89-2.6-5.95-3.52-10.06-10.06-10.06-17.94s4.19-14.5,10.14-18.02c2.68-1.59,5.95-2.51,9.64-2.51,4.27,0,8.55,1.34,12.07,4.27V27.17h7.96v59.51h-7.71v-3.6Zm-.25-23.47c-2.43-3.19-6.45-5.62-11.23-5.62-7.63,0-12.66,6.12-12.66,12.99s5.45,12.99,13.08,12.99c4.02,0,8.13-2.01,10.81-5.62v-14.75Z"/><path class="d" d="M395.5,71.59h-24.73l-6.12,15.09h-8.72l24.31-58.67h5.87l24.31,58.67h-8.72l-6.2-15.09Zm-21.37-7.96h18.1l-9.05-21.79-9.05,21.79Z"/><path class="d" d="M425.68,51.06c2.1-2.01,6.12-4.61,11.82-4.61s10.98,2.68,14.33,6.96c2.51,3.19,3.86,7.21,3.86,14v19.28h-7.96v-19.7c0-5.03-.92-7.38-2.35-9.14-1.84-2.35-4.86-3.86-8.13-3.86-5.2,0-8.97,2.77-11.32,5.62v27.07h-7.96V47.29h7.71v3.77Z"/><path class="d" d="M497.85,83.08c-3.19,2.85-7.46,4.44-12.15,4.44-3.52,0-7.21-1.01-9.89-2.6-5.95-3.52-10.06-10.06-10.06-17.94s4.19-14.5,10.14-18.02c2.68-1.59,5.95-2.51,9.64-2.51,4.27,0,8.55,1.34,12.07,4.27V27.17h7.96v59.51h-7.71v-3.6Zm-.25-23.47c-2.43-3.19-6.45-5.62-11.23-5.62-7.63,0-12.66,6.12-12.66,12.99s5.45,12.99,13.08,12.99c4.02,0,8.13-2.01,10.81-5.62v-14.75Z"/><path class="d" d="M541.52,54.33c-.92-.25-1.84-.34-3.1-.34-4.11,0-8.47,2.85-10.64,6.62v26.07h-7.96V47.29h7.71v4.53c1.93-2.68,6.03-5.36,11.82-5.36,.84,0,2.18,.08,3.1,.25l-.92,7.63Z"/><path class="d" d="M554.76,68.66c.42,6.62,5.87,11.9,12.74,11.9,5.87,0,9.05-2.85,11.31-5.36l5.2,4.95c-2.93,3.77-8.55,7.38-16.6,7.38-11.48,0-20.37-8.72-20.37-20.54s8.05-20.54,19.19-20.54,18.94,8.88,18.94,20.54c0,.33,0,.92-.08,1.68h-30.34Zm.67-6.71h21.46c-1.17-5.03-5.7-8.55-10.39-8.55-5.11,0-9.72,3.44-11.06,8.55Z"/><path class="d" d="M644.19,27.17c8.38,0,16.34,3.44,21.46,9.05l-5.62,5.53c-3.44-3.77-9.55-6.62-15.84-6.62-11.99,0-21.29,9.56-21.29,22.21s9.55,22.21,22.04,22.21c7.88,0,13.58-4.36,16.85-8.3l5.95,5.36c-5.03,6.45-13.75,10.9-22.8,10.9-17.52,0-30.43-12.82-30.43-30.17s12.74-30.17,29.67-30.17Z"/><path class="d" d="M698.26,54.33c-.92-.25-1.84-.34-3.1-.34-4.11,0-8.47,2.85-10.64,6.62v26.07h-7.96V47.29h7.71v4.53c1.93-2.68,6.03-5.36,11.82-5.36,.84,0,2.18,.08,3.1,.25l-.92,7.63Z"/><path class="d" d="M712.76,28.01c2.93,0,5.28,2.35,5.28,5.28s-2.35,5.2-5.28,5.2-5.2-2.26-5.2-5.2,2.26-5.28,5.2-5.28Zm-3.94,19.28h7.96v39.39h-7.96V47.29Z"/><path class="d" d="M766.23,78.3c-3.27,5.45-10.31,9.22-17.52,9.22-12.15,0-21.04-8.88-21.04-20.54s8.72-20.54,20.53-20.54c6.87,0,13.08,3.44,16.76,8.55l-5.87,4.95c-2.18-3.02-5.87-5.95-10.9-5.95-7.12,0-12.57,5.53-12.57,12.99s5.53,12.99,13.08,12.99c5.2,0,8.88-2.77,11.4-6.12l6.12,4.44Z"/><path class="d" d="M783.42,50.72c2.18-1.84,6.12-4.27,11.57-4.27,5.78,0,10.98,2.68,14.33,6.96,2.51,3.19,3.86,7.21,3.86,14v19.28h-7.96v-19.7c0-5.03-.92-7.38-2.35-9.14-1.84-2.35-4.86-3.86-8.13-3.86-5.2,0-8.97,2.77-11.31,5.62v27.07h-7.96V27.17h7.96v23.55Z"/><path class="d" d="M826.58,27.17h7.96v59.51h-7.96V27.17Z"/><path class="d" d="M865.81,46.45c11.65,0,20.37,8.8,20.37,20.54s-8.72,20.54-20.37,20.54-20.37-8.8-20.37-20.54,8.72-20.54,20.37-20.54Zm0,33.53c7.29,0,12.4-5.78,12.4-12.99s-5.11-12.99-12.4-12.99-12.41,5.78-12.41,12.99,5.11,12.99,12.41,12.99Z"/><path class="d" d="M925.74,47.29l10.81,26.9,10.81-26.9h8.21l-16.01,39.39h-5.53l-11.06-27.66-11.06,27.66h-5.53l-16.01-39.39h8.21l10.81,26.9,10.81-26.9h5.53Z"/></g></g></g></svg>